<svg id="visual" viewBox="0 0 1920 1080" width="1920" height="1080" xmlns="http://www.w3.org/2000/svg" xmlns:xlink="http://www.w3.org/1999/xlink" version="1.1"><rect x="0" y="0" width="1920" height="1080" fill="#002233"></rect><path d="M0 468L45.7 497.5C91.3 527 182.7 586 274.2 578.2C365.7 570.3 457.3 495.7 548.8 511.8C640.3 528 731.7 635 823 665.5C914.3 696 1005.7 650 1097 644.2C1188.3 638.3 1279.7 672.7 1371.2 652.7C1462.7 632.7 1554.3 558.3 1645.8 508C1737.3 457.7 1828.7 431.3 1874.3 418.2L1920 405L1920 1081L1874.3 1081C1828.7 1081 1737.3 1081 1645.8 1081C1554.3 1081 1462.7 1081 1371.2 1081C1279.7 1081 1188.3 1081 1097 1081C1005.7 1081 914.3 1081 823 1081C731.7 1081 640.3 1081 548.8 1081C457.3 1081 365.7 1081 274.2 1081C182.7 1081 91.3 1081 45.7 1081L0 1081Z" fill="#001122" stroke-linecap="round" stroke-linejoin="miter"></path></svg>